<svg viewBox="0 0 112.986 114.3756" x="0" y="0" fill="none" xmlns="http://www.w3.org/2000/svg"><g id="Group 1000000954" xmlns="http://www.w3.org/2000/svg">
<path id="Vector 6386" d="M12.2085,47.279l-8.135,0.159c4.198,-67.294 91.795,-58.504 92.903,-1.815l-8.661,0.17c-1.911,-44.072 -69.073,-55.099 -76.107,1.486z" fill="#00A650"/>
<g id="Vector_7">
<path d="M60.3365,24.731l-38.077,39.862l9.973,-0.195l23.173,-23.293l1.064,14.156l14.158,-14.454l0.276,14.172l6.561,-0.128l-0.594,-30.443l-15.403,17.891z" fill="#00A650"/>
<path d="M50.1885,29.392l-5.393,6.144c-2.616,-2.755 -4.257,-3.579 -5.917,-3.56c-1.908,0.022 -3.95,0.94 -4.669,2.707c-0.648,1.593 -0.245,3.459 0.554,5.045c1.559,3.093 5.317,4.091 8.514,5.423c2.456,1.023 4.4,2.005 6.016,3.104c4.015,2.729 6.719,7.438 6.619,12.291c-0.036,1.741 -0.458,3.539 -1.327,5.778c-3.528,5.95 -6.511,8.839 -12.004,9.746c-3.713,0.614 -7.568,-0.001 -11.013,-1.515c-4.955,-2.177 -7.348,-5.215 -9.334,-11.275l9.026,-8.315l5.341,4.622l-3.158,3.478c-0.697,0.767 -0.73,1.927 -0.078,2.733l0.75,0.926c4.995,3.423 12.593,0.501 12.346,-6.122c-0.062,-1.645 -1.205,-2.995 -2.599,-3.871l-14.85,-9.335c-5.326,-3.834 -6.358,-14.578 -0.385,-19.683c7.231,-6.179 15.896,-6.086 21.561,1.679z" fill="#CB0F17"/>
</g>
<path id="Vector 6389" d="M100.5115,11.685l-5.749,14.814l-4.096,-8.058l5.024,-11.65l14.892,-3.704c2.115,0.746 3.221,3.612 1.692,6.005z" fill="#CB0F17"/>
<path id="Subtract" d="M78.2895,97.098c4.493,-0.088 8.206,3.483 8.294,7.976c0.088,4.494 -3.483,8.208 -7.976,8.295c-4.493,0.088 -8.206,-3.484 -8.294,-7.977c-0.087,-4.493 3.483,-8.206 7.976,-8.294zM78.4115,103.397c-1.014,0.02 -1.82,0.859 -1.8,1.873c0.02,1.014 0.858,1.821 1.872,1.801c1.015,-0.02 1.821,-0.858 1.802,-1.873c-0.02,-1.014 -0.859,-1.821 -1.874,-1.801z" fill="#CB0F17"/>
<path id="Subtract_2" d="M26.8525,98.102c4.493,-0.088 8.207,3.483 8.295,7.976c0.088,4.493 -3.484,8.208 -7.977,8.295c-4.493,0.088 -8.206,-3.484 -8.294,-7.977c-0.088,-4.493 3.483,-8.206 7.976,-8.294zM26.9765,104.401c-1.014,0.02 -1.82,0.858 -1.801,1.872c0.02,1.014 0.858,1.821 1.873,1.802c1.014,-0.02 1.821,-0.859 1.801,-1.874c-0.019,-1.014 -0.858,-1.82 -1.873,-1.8z" fill="#CB0F17"/>
<g id="Group">
<path id="S" d="M3.7655,56.543c-0.148,-0.613 -0.218,-1.228 -0.209,-1.845c0.018,-0.612 0.102,-1.135 0.253,-1.567l1.698,0.206c-0.128,0.402 -0.21,0.843 -0.245,1.322c-0.026,0.485 0.014,0.944 0.119,1.379c0.071,0.292 0.152,0.52 0.244,0.682c0.099,0.161 0.2,0.267 0.303,0.318c0.111,0.057 0.226,0.066 0.345,0.028c0.168,-0.053 0.281,-0.174 0.341,-0.362c0.06,-0.188 0.091,-0.417 0.094,-0.687c0.002,-0.269 -0.002,-0.567 -0.013,-0.894c-0.01,-0.319 -0.002,-0.648 0.021,-0.986c0.026,-0.33 0.085,-0.645 0.179,-0.944c0.1,-0.3 0.257,-0.569 0.47,-0.807c0.221,-0.239 0.527,-0.421 0.918,-0.546c0.44,-0.141 0.868,-0.147 1.282,-0.019c0.417,0.136 0.793,0.415 1.128,0.838c0.336,0.423 0.592,1.001 0.77,1.735c0.118,0.492 0.179,0.991 0.181,1.497c0.01,0.511 -0.044,0.986 -0.164,1.423l-1.698,-0.16c0.102,-0.416 0.157,-0.814 0.163,-1.192c0.014,-0.381 -0.019,-0.735 -0.099,-1.063c-0.07,-0.292 -0.159,-0.517 -0.264,-0.675c-0.099,-0.161 -0.207,-0.265 -0.324,-0.312c-0.117,-0.047 -0.238,-0.05 -0.364,-0.01c-0.16,0.051 -0.272,0.167 -0.333,0.348c-0.053,0.186 -0.081,0.414 -0.083,0.683c0.006,0.275 0.014,0.572 0.023,0.891c0.011,0.327 0.004,0.656 -0.021,0.986c-0.017,0.336 -0.076,0.654 -0.176,0.955c-0.093,0.298 -0.251,0.564 -0.473,0.796c-0.214,0.237 -0.513,0.417 -0.897,0.54c-0.426,0.136 -0.851,0.138 -1.275,0.004c-0.414,-0.128 -0.789,-0.404 -1.125,-0.827c-0.334,-0.415 -0.59,-0.993 -0.769,-1.735z" fill="black"/>
<path id="U" d="M8.4275,67.559c-0.457,-1.04 -0.545,-2.011 -0.264,-2.91c0.281,-0.9 0.915,-1.64 1.901,-2.219l3.681,-2.161l0.876,1.994l-3.624,2.128c-0.569,0.334 -0.925,0.691 -1.069,1.071c-0.14,0.387 -0.119,0.788 0.064,1.204c0.183,0.416 0.449,0.67 0.799,0.76c0.35,0.09 0.809,-0.032 1.378,-0.366l3.624,-2.128l0.862,1.964l-3.68,2.161c-0.987,0.58 -1.877,0.735 -2.671,0.466c-0.794,-0.268 -1.42,-0.923 -1.877,-1.964z" fill="black"/>
<path id="P" d="M14.2015,75.37l5.425,-5.464l2.109,2.819c0.421,0.563 0.704,1.128 0.847,1.695c0.147,0.572 0.152,1.123 0.014,1.654c-0.133,0.525 -0.406,0.995 -0.819,1.412c-0.409,0.411 -0.846,0.656 -1.313,0.734c-0.466,0.079 -0.936,-0.004 -1.409,-0.249c-0.463,-0.243 -0.906,-0.647 -1.327,-1.211l-1.384,-1.849l1.246,0.103l-2.085,2.1zM17.4275,75.178l0.126,-1.485l1.305,1.744c0.272,0.364 0.544,0.564 0.815,0.599c0.276,0.042 0.538,-0.062 0.786,-0.312c0.253,-0.255 0.381,-0.544 0.384,-0.866c0.008,-0.317 -0.124,-0.657 -0.397,-1.021l-1.304,-1.744l1.285,0.064z" fill="black"/>
<path id="E" d="M25.5755,80.099l2.66,2.387l-0.9,1.357l-2.66,-2.388zM24.0115,82.732l2.996,2.688l-0.93,1.403l-4.601,-4.129l4.256,-6.416l4.495,4.033l-0.93,1.402l-2.89,-2.593z" fill="black"/>
<path id="R" d="M30.4495,88.563l2.901,-7.133l3.08,1.706c0.616,0.341 1.102,0.739 1.459,1.195c0.363,0.459 0.586,0.957 0.666,1.492c0.084,0.529 0.015,1.066 -0.206,1.609c-0.218,0.537 -0.529,0.934 -0.933,1.193c-0.402,0.253 -0.87,0.36 -1.404,0.322c-0.526,-0.042 -1.097,-0.233 -1.713,-0.574l-2.02,-1.119l1.19,-0.377l-1.114,2.741zM34.6165,90.87l-0.618,-3.525l2.031,1.124l0.627,3.531zM33.3825,87.091l-0.469,-1.396l1.905,1.055c0.398,0.22 0.73,0.292 0.997,0.215c0.274,-0.073 0.477,-0.273 0.609,-0.599c0.136,-0.333 0.141,-0.646 0.017,-0.939c-0.118,-0.29 -0.376,-0.545 -0.773,-0.766l-1.906,-1.055l1.224,-0.458z" fill="black"/>
<path id="M" d="M46.3125,93.175l0.643,-7.673l1.781,0.213l2.73,5.597l-0.939,-0.112l3.517,-4.849l1.78,0.213l-0.621,7.675l-1.988,-0.238l0.367,-4.639l0.338,0.041l-2.629,3.604l-0.961,-0.115l-2.045,-4.164l0.415,0.05l-0.389,4.636z" fill="black"/>
<path id="A" d="M59.2175,92.447l2.031,-8.329l2.094,-0.464l4.616,6.853l-2.212,0.491l-3.707,-5.963l0.837,-0.186l-1.49,7.116zM60.7815,90.569l0.28,-1.705l3.672,-0.815l0.816,1.462z" fill="black"/>
<path id="R_2" d="M71.1725,88.072l-2.883,-7.139l3.098,-1.671c0.62,-0.334 1.195,-0.516 1.726,-0.545c0.537,-0.033 1.009,0.085 1.416,0.354c0.405,0.262 0.717,0.665 0.936,1.209c0.217,0.537 0.283,1.069 0.197,1.596c-0.089,0.52 -0.317,1.007 -0.684,1.461c-0.363,0.445 -0.854,0.834 -1.474,1.168l-2.033,1.096l0.51,-1.306l1.108,2.744zM75.3655,85.812l-2.735,-1.693l2.043,-1.101l2.744,1.687zM72.0685,84.509l-1.227,-0.469l1.917,-1.033c0.4,-0.216 0.66,-0.468 0.78,-0.756c0.126,-0.291 0.123,-0.6 -0.009,-0.927c-0.135,-0.333 -0.339,-0.537 -0.613,-0.613c-0.268,-0.079 -0.602,-0.011 -1.002,0.205l-1.917,1.033l0.477,-1.387z" fill="black"/>
<path id="K" d="M81.0105,78.793l-1.46,-1.94l0.453,-5.171l1.773,-1.616l-0.433,5.182l-0.185,1.862zM80.5285,81.516l-4.321,-6.374l1.593,-1.452l4.321,6.373zM84.3495,78.033l-3.638,-0.942l0.197,-2.212l5.31,1.449z" fill="black"/>
<path id="E_2" d="M86.5025,67.159l1.984,-2.974l1.209,1.09l-1.984,2.975zM88.8425,69.065l2.234,-3.35l1.25,1.127l-3.43,5.143l-5.718,-5.156l3.35,-5.025l1.25,1.127l-2.154,3.231z" fill="black"/>
<path id="T" d="M95.0405,60.35l-5.218,-2.907l-0.896,2.189l-1.509,-0.841l2.613,-6.383l1.509,0.841l-0.892,2.178l5.218,2.908z" fill="black"/>
</g>
</g></svg>