<svg width="242" height="242" viewBox="0 0 242 242" fill="none" xmlns="http://www.w3.org/2000/svg">
<path d="M26.2076 98.877H8.92188C20.6316 -43.8757 206.314 -21.5714 206.314 98.877H187.913C185.682 5.19437 43.4933 -21.0132 26.2076 98.877Z" fill="#00A650"/>
<path d="M129.365 52.9822L46.8394 136.065H68.0283L118.213 87.5537L119.885 117.664L150.554 87.5537V117.664H164.494V52.9822L131.038 90.3417L129.365 52.9822Z" fill="#00A650"/>
<path d="M107.618 62.4609L95.9085 75.2858C90.4672 69.3259 87.015 67.5082 83.4901 67.4796C79.436 67.4468 75.0602 69.3113 73.4598 73.0362C72.0183 76.3909 72.7959 80.3725 74.4283 83.7741C77.6113 90.4073 85.5503 92.6834 92.2856 95.6442C97.4606 97.9192 101.548 100.086 104.934 102.486C113.348 108.45 118.897 118.563 118.482 128.867C118.334 132.563 117.364 136.364 115.425 141.083C107.685 153.573 101.228 159.586 89.5247 161.286C81.613 162.435 73.452 160.969 66.1971 157.611C55.764 152.781 50.8061 146.228 46.8394 133.277L66.3555 115.991L77.5076 126.028L70.6553 133.283C69.1439 134.883 69.0258 137.347 70.3772 139.085L71.9315 141.083C82.3982 148.56 98.6563 142.67 98.4063 128.593C98.3442 125.097 95.9711 122.183 93.0476 120.264L61.8947 99.8203C50.7426 91.4563 48.9964 68.5945 61.8947 58C77.5076 45.1758 95.9085 45.7332 107.618 62.4609Z" fill="#ED1B24"/>
<path d="M215.236 26.941L202.411 58.1668L194.047 40.8811L205.199 16.3465L236.982 9.09766C241.443 10.7705 243.674 16.9041 240.328 21.9226L215.236 26.941Z" fill="#ED1B24"/>
<path d="M164.493 207.43C174.039 207.43 181.779 215.169 181.779 224.716C181.779 234.262 174.039 242.001 164.493 242.001C154.946 242.001 147.208 234.262 147.208 224.716C147.208 215.169 154.946 207.43 164.493 207.43ZM164.494 220.809C162.338 220.809 160.591 222.556 160.59 224.712C160.59 226.868 162.338 228.615 164.494 228.615C166.649 228.615 168.396 226.867 168.396 224.712C168.396 222.557 166.649 220.809 164.494 220.809Z" fill="#ED1B24"/>
<path d="M55.2017 207.43C64.7481 207.43 72.4868 215.169 72.4868 224.716C72.4867 234.262 64.7481 242.001 55.2017 242.001C45.6551 242.001 37.9156 234.262 37.9155 224.716C37.9155 215.169 45.655 207.43 55.2017 207.43ZM55.2007 220.809C53.0451 220.809 51.2976 222.556 51.2974 224.712C51.2974 226.868 53.045 228.615 55.2007 228.615C57.3563 228.615 59.104 226.868 59.104 224.712C59.1038 222.556 57.3562 220.809 55.2007 220.809Z" fill="#ED1B24"/>
<path d="M6.24733 118.902C5.95029 117.558 5.82461 116.213 5.87028 114.867C5.93474 113.533 6.14128 112.397 6.4899 111.46L10.1846 111.982C9.88691 112.854 9.6901 113.812 9.59414 114.856C9.51696 115.912 9.58372 116.916 9.79441 117.869C9.93602 118.509 10.1037 119.009 10.2973 119.368C10.5064 119.722 10.7219 119.957 10.9438 120.074C11.1846 120.202 11.4353 120.227 11.696 120.149C12.064 120.04 12.3173 119.781 12.456 119.373C12.5947 118.966 12.6726 118.468 12.6897 117.88C12.7068 117.292 12.7101 116.641 12.6995 115.929C12.6925 115.231 12.722 114.515 12.7881 113.779C12.8577 113.059 13.0007 112.375 13.2172 111.728C13.4489 111.076 13.8028 110.495 14.2788 109.987C14.7702 109.474 15.4451 109.09 16.3038 108.834C17.2697 108.546 18.2024 108.551 19.1019 108.849C20.0047 109.162 20.813 109.787 21.5266 110.724C22.2403 111.66 22.775 112.933 23.1307 114.542C23.369 115.62 23.4795 116.711 23.4621 117.815C23.4636 118.93 23.3241 119.963 23.0437 120.912L19.3468 120.491C19.5881 119.586 19.7238 118.722 19.7538 117.897C19.7993 117.067 19.7425 116.293 19.5836 115.574C19.442 114.934 19.259 114.439 19.0347 114.089C18.8257 113.735 18.5949 113.505 18.3422 113.397C18.0896 113.289 17.8252 113.276 17.5492 113.358C17.1966 113.464 16.9492 113.712 16.8071 114.104C16.6837 114.507 16.6135 115.003 16.5964 115.591C16.5981 116.19 16.6024 116.838 16.6095 117.535C16.62 118.248 16.5905 118.965 16.5209 119.685C16.4701 120.416 16.3288 121.108 16.097 121.76C15.8806 122.407 15.525 122.979 15.0302 123.477C14.5542 123.985 13.8946 124.365 13.0513 124.616C12.116 124.895 11.1892 124.88 10.271 124.571C9.3716 124.273 8.56508 123.656 7.85143 122.72C7.14125 121.799 6.60655 120.526 6.24733 118.902Z" fill="black"/>
<path d="M15.8943 142.884C14.9416 140.595 14.7909 138.474 15.4421 136.524C16.0934 134.573 17.5074 132.987 19.6841 131.765L27.8048 127.208L29.6303 131.596L21.6352 136.082C20.3794 136.787 19.587 137.55 19.2579 138.373C18.935 139.21 18.9641 140.087 19.3452 141.002C19.7263 141.918 20.2964 142.482 21.0557 142.694C21.815 142.905 22.8226 142.659 24.0784 141.954L32.0735 137.468L33.8713 141.788L25.7506 146.346C23.5739 147.567 21.6252 147.868 19.9044 147.248C18.1837 146.629 16.847 145.174 15.8943 142.884Z" fill="black"/>
<path d="M28.0508 159.882L40.1186 148.194L44.5983 154.432C45.4942 155.679 46.086 156.924 46.3737 158.166C46.6707 159.421 46.6575 160.624 46.334 161.774C46.0221 162.914 45.4063 163.929 44.4869 164.819C43.5789 165.698 42.6143 166.214 41.5931 166.366C40.5719 166.518 39.5507 166.317 38.5296 165.763C37.5294 165.212 36.5813 164.312 35.6854 163.064L32.7456 158.97L35.4601 159.25L30.8226 163.741L28.0508 159.882ZM35.0981 159.601L35.435 156.366L38.2068 160.226C38.7854 161.031 39.3699 161.479 39.9602 161.568C40.5598 161.671 41.1354 161.455 41.6871 160.92C42.2503 160.375 42.5423 159.75 42.5633 159.047C42.5937 158.357 42.3195 157.608 41.7409 156.803L38.9691 152.943L41.7698 153.139L35.0981 159.601Z" fill="black"/>
<path d="M52.5138 170.468L58.2165 175.79L56.1955 178.711L50.4928 173.389L52.5138 170.468ZM48.9905 176.144L55.4126 182.137L53.3234 185.157L43.4621 175.955L53.0209 162.139L62.6541 171.129L60.5648 174.148L54.3708 168.368L48.9905 176.144Z" fill="black"/>
<path d="M62.59 188.953L69.2226 173.517L75.8673 177.368C77.1963 178.138 78.2404 179.028 78.9998 180.037C79.773 181.055 80.2363 182.15 80.3896 183.322C80.5493 184.479 80.3765 185.646 79.8711 186.822C79.3721 187.983 78.6764 188.838 77.784 189.386C76.8979 189.919 75.8724 190.132 74.7076 190.026C73.5629 189.914 72.3261 189.472 70.9971 188.702L66.6365 186.175L69.2502 185.404L66.7014 191.335L62.59 188.953ZM71.5812 194.163L70.3842 186.447L74.7656 188.986L75.9833 196.715L71.5812 194.163ZM69.0513 185.867L68.0862 182.801L72.1976 185.184C73.0559 185.681 73.778 185.852 74.3638 185.696C74.9635 185.548 75.415 185.121 75.7182 184.415C76.0277 183.695 76.0532 183.012 75.7946 182.366C75.5498 181.729 74.9983 181.161 74.14 180.664L70.0286 178.281L72.7181 177.333L69.0513 185.867Z" fill="black"/>
<path d="M96.613 199.522L98.3425 182.811L102.217 183.352L107.934 195.678L105.89 195.392L113.769 184.965L117.643 185.506L115.961 202.223L111.635 201.619L112.633 191.514L113.37 191.617L107.48 199.368L105.388 199.076L101.105 189.905L102.008 190.031L100.963 200.129L96.613 199.522Z" fill="black"/>
<path d="M124.433 198.499L129.22 180.419L133.807 179.494L143.584 194.64L138.737 195.616L130.905 182.451L132.74 182.081L129.185 197.542L124.433 198.499ZM127.926 194.47L128.608 190.763L136.654 189.141L138.372 192.365L127.926 194.47Z" fill="black"/>
<path d="M150.423 189.588L144.439 173.89L151.269 170.378C152.635 169.676 153.897 169.304 155.055 169.263C156.228 169.214 157.253 169.492 158.13 170.096C159.001 170.685 159.665 171.577 160.121 172.773C160.571 173.954 160.691 175.117 160.481 176.263C160.265 177.393 159.748 178.446 158.928 179.421C158.117 180.375 157.029 181.203 155.663 181.905L151.181 184.21L152.35 181.383L154.649 187.415L150.423 189.588ZM159.665 184.836L153.771 181.027L158.275 178.711L164.19 182.509L159.665 184.836ZM152.529 181.854L149.873 180.779L154.099 178.606C154.981 178.152 155.559 177.614 155.832 176.99C156.119 176.36 156.126 175.686 155.852 174.968C155.573 174.236 155.136 173.781 154.541 173.604C153.96 173.42 153.228 173.555 152.346 174.008L148.12 176.181L149.22 173.175L152.529 181.854Z" fill="black"/>
<path d="M172.058 169.949L168.957 165.655L170.166 154.394L174.101 150.946L172.936 162.232L172.454 166.286L172.058 169.949ZM170.89 175.868L161.737 161.781L165.275 158.681L174.428 172.768L170.89 175.868ZM179.374 168.434L171.479 166.224L172.003 161.407L183.525 164.796L179.374 168.434Z" fill="black"/>
<path d="M184.362 145.071L188.815 138.667L191.406 141.097L186.953 147.501L184.362 145.071ZM189.385 149.327L194.4 142.115L197.078 144.627L189.378 155.701L177.124 144.208L184.646 133.39L187.325 135.902L182.488 142.858L189.385 149.327Z" fill="black"/>
<path d="M203.178 130.832L191.92 124.267L189.873 129.003L186.618 127.105L192.589 113.293L195.844 115.191L193.806 119.905L205.064 126.47L203.178 130.832Z" fill="black"/>
<path d="M126.123 128.002H130.322L129.919 129.991H125.733L126.123 128.002ZM125.291 133.111H122.717L124.537 124.011H131.661L131.258 126H126.708L125.291 133.111ZM131.058 133.111L132.878 124.011H136.765C137.935 124.011 138.836 124.267 139.469 124.778C140.11 125.29 140.431 126 140.431 126.91C140.431 127.673 140.245 128.34 139.872 128.912C139.508 129.476 138.988 129.913 138.312 130.225C137.636 130.537 136.839 130.693 135.92 130.693H132.969L134.334 129.588L133.632 133.111H131.058ZM136.765 133.111L134.906 129.796H137.571L139.456 133.111H136.765ZM134.269 129.887L133.372 128.704H136.037C136.609 128.704 137.051 128.57 137.363 128.301C137.675 128.033 137.831 127.651 137.831 127.157C137.831 126.776 137.705 126.494 137.454 126.312C137.203 126.13 136.852 126.039 136.401 126.039H133.918L135.296 124.817L134.269 129.887ZM144.152 127.534H148.377L148 129.458H143.775L144.152 127.534ZM143.619 131.122H148.39L147.974 133.111H140.681L142.501 124.011H149.625L149.222 126H144.633L143.619 131.122ZM152.809 133.293C152.289 133.293 151.79 133.25 151.314 133.163C150.837 133.085 150.404 132.973 150.014 132.825C149.624 132.669 149.29 132.5 149.013 132.318L150.027 130.394C150.339 130.585 150.659 130.75 150.989 130.888C151.327 131.018 151.669 131.118 152.016 131.187C152.362 131.257 152.709 131.291 153.056 131.291C153.385 131.291 153.667 131.261 153.901 131.2C154.135 131.131 154.312 131.036 154.434 130.914C154.555 130.793 154.616 130.65 154.616 130.485C154.616 130.303 154.533 130.16 154.369 130.056C154.213 129.944 154.005 129.848 153.745 129.77C153.485 129.692 153.194 129.614 152.874 129.536C152.562 129.45 152.245 129.35 151.925 129.237C151.613 129.116 151.327 128.969 151.067 128.795C150.807 128.613 150.594 128.384 150.43 128.106C150.274 127.829 150.196 127.487 150.196 127.079C150.196 126.421 150.373 125.849 150.729 125.363C151.084 124.878 151.587 124.501 152.237 124.232C152.895 123.964 153.671 123.829 154.564 123.829C155.214 123.829 155.82 123.899 156.384 124.037C156.947 124.167 157.432 124.358 157.84 124.609L156.904 126.52C156.548 126.295 156.154 126.126 155.721 126.013C155.296 125.892 154.858 125.831 154.408 125.831C154.061 125.831 153.762 125.87 153.511 125.948C153.268 126.026 153.082 126.135 152.952 126.273C152.83 126.403 152.77 126.551 152.77 126.715C152.77 126.889 152.848 127.032 153.004 127.144C153.16 127.257 153.368 127.352 153.628 127.43C153.896 127.508 154.187 127.591 154.499 127.677C154.819 127.755 155.136 127.851 155.448 127.963C155.76 128.067 156.05 128.21 156.319 128.392C156.587 128.566 156.8 128.787 156.956 129.055C157.112 129.324 157.19 129.658 157.19 130.056C157.19 130.706 157.012 131.274 156.657 131.759C156.301 132.245 155.794 132.622 155.136 132.89C154.477 133.159 153.701 133.293 152.809 133.293ZM165.724 124.011H168.298L166.478 133.111H163.904L165.724 124.011ZM160.407 133.111H157.833L159.653 124.011H162.227L160.407 133.111ZM164.801 129.562H160.94L161.369 127.43H165.23L164.801 129.562Z" fill="#ED1B24"/>
<path d="M122.535 144.111L124.355 135.011H126.851L129.282 140.952H127.956L132.636 135.011H135.249L133.455 144.111H130.66L131.609 139.223L132.051 139.197L128.905 143.292H127.553L125.785 139.184L126.305 139.223L125.33 144.111H122.535ZM133.951 144.111L139.749 135.011H142.765L144.923 144.111H141.868L140.399 136.428H141.595L137.188 144.111H133.951ZM136.629 142.525L137.851 140.315H142.037L142.375 142.525H136.629ZM145.412 144.111L147.232 135.011H151.314C152.519 135.011 153.451 135.276 154.109 135.804C154.768 136.324 155.097 137.057 155.097 138.001C155.097 138.764 154.907 139.431 154.525 140.003C154.153 140.575 153.62 141.022 152.926 141.342C152.242 141.663 151.431 141.823 150.495 141.823H147.557L149.195 140.536L148.48 144.111H145.412ZM150.976 144.111L149.104 140.796H152.263L154.161 144.111H150.976ZM149.117 140.9L148.038 139.509H150.651C151.076 139.509 151.405 139.405 151.639 139.197C151.873 138.981 151.99 138.682 151.99 138.3C151.99 137.971 151.886 137.737 151.678 137.598C151.479 137.451 151.202 137.377 150.846 137.377H148.467L150.105 135.947L149.117 140.9ZM156.948 144.111L158.287 137.39H155.622L156.103 135.011H164.501L164.02 137.39H161.355L160.016 144.111H156.948Z" fill="#06A751"/>
</svg>
